<mxfile host="Electron" agent="Mozilla/5.0 (Windows NT 10.0; Win64; x64) AppleWebKit/537.36 (KHTML, like Gecko) draw.io/26.0.9 Chrome/128.0.6613.186 Electron/32.2.5 Safari/537.36" version="26.0.9">
  <diagram name="Page-1" id="xKv6j_wKPZ9WB2m-PmId">
    <mxGraphModel dx="1728" dy="997" grid="1" gridSize="10" guides="1" tooltips="1" connect="1" arrows="1" fold="1" page="1" pageScale="1" pageWidth="827" pageHeight="1169" math="0" shadow="0">
      <root>
        <mxCell id="0" />
        <mxCell id="1" parent="0" />
        <mxCell id="EpY4ozwn9fiaTj6WJwRW-15" value="" style="rounded=0;whiteSpace=wrap;html=1;fillColor=none;" parent="1" vertex="1">
          <mxGeometry x="190" y="150" width="490" height="890" as="geometry" />
        </mxCell>
        <mxCell id="FCarrhBZYIS1ZnFIF-RJ-1" value="&lt;font style=&quot;font-size: 13px;&quot;&gt;Unternehmenssteuerung&lt;/font&gt;" style="shape=umlActor;verticalLabelPosition=bottom;verticalAlign=top;align=center;html=1;" parent="1" vertex="1">
          <mxGeometry x="90" y="197.5" width="30" height="55" as="geometry" />
        </mxCell>
        <mxCell id="FCarrhBZYIS1ZnFIF-RJ-2" value="Verfügbare Daten und Kennzahlen analysieren" style="ellipse;whiteSpace=wrap;html=1;" parent="1" vertex="1">
          <mxGeometry x="510" y="185" width="150" height="80" as="geometry" />
        </mxCell>
        <mxCell id="FCarrhBZYIS1ZnFIF-RJ-5" value="Leistungskennziffern für Performance Bericht definieren" style="ellipse;whiteSpace=wrap;html=1;" parent="1" vertex="1">
          <mxGeometry x="210" y="180" width="190" height="90" as="geometry" />
        </mxCell>
        <mxCell id="FCarrhBZYIS1ZnFIF-RJ-14" value="" style="edgeStyle=none;html=1;endArrow=none;verticalAlign=bottom;rounded=0;exitX=0.5;exitY=0.5;exitDx=0;exitDy=0;exitPerimeter=0;entryX=0;entryY=0.5;entryDx=0;entryDy=0;" parent="1" source="FCarrhBZYIS1ZnFIF-RJ-1" target="FCarrhBZYIS1ZnFIF-RJ-5" edge="1">
          <mxGeometry width="160" relative="1" as="geometry">
            <mxPoint x="430" y="290" as="sourcePoint" />
            <mxPoint x="590" y="290" as="targetPoint" />
          </mxGeometry>
        </mxCell>
        <mxCell id="EpY4ozwn9fiaTj6WJwRW-5" value="&amp;lt;&amp;lt;include&amp;gt;&amp;gt;" style="edgeStyle=none;html=1;endArrow=open;verticalAlign=bottom;dashed=1;labelBackgroundColor=none;rounded=0;exitX=1;exitY=0.5;exitDx=0;exitDy=0;entryX=0;entryY=0.5;entryDx=0;entryDy=0;" parent="1" source="FCarrhBZYIS1ZnFIF-RJ-5" target="FCarrhBZYIS1ZnFIF-RJ-2" edge="1">
          <mxGeometry x="-0.0947" y="7" width="160" relative="1" as="geometry">
            <mxPoint x="415" y="220" as="sourcePoint" />
            <mxPoint x="505" y="170" as="targetPoint" />
            <mxPoint as="offset" />
          </mxGeometry>
        </mxCell>
        <mxCell id="HsOf5Jn7f1l0d6Cwsqnm-9" value="" style="edgeStyle=orthogonalEdgeStyle;rounded=0;orthogonalLoop=1;jettySize=auto;html=1;startArrow=none;startFill=0;endArrow=none;exitX=0.5;exitY=0.5;exitDx=0;exitDy=0;exitPerimeter=0;" edge="1" parent="1" source="HsOf5Jn7f1l0d6Cwsqnm-3" target="HsOf5Jn7f1l0d6Cwsqnm-7">
          <mxGeometry relative="1" as="geometry" />
        </mxCell>
        <mxCell id="HsOf5Jn7f1l0d6Cwsqnm-15" style="edgeStyle=orthogonalEdgeStyle;rounded=0;orthogonalLoop=1;jettySize=auto;html=1;exitX=0.5;exitY=0.5;exitDx=0;exitDy=0;exitPerimeter=0;entryX=0;entryY=0.5;entryDx=0;entryDy=0;endArrow=none;startFill=0;" edge="1" parent="1" source="HsOf5Jn7f1l0d6Cwsqnm-3" target="HsOf5Jn7f1l0d6Cwsqnm-14">
          <mxGeometry relative="1" as="geometry" />
        </mxCell>
        <mxCell id="HsOf5Jn7f1l0d6Cwsqnm-3" value="&lt;font style=&quot;font-size: 13px;&quot;&gt;Buchungssystem&lt;/font&gt;" style="shape=umlActor;verticalLabelPosition=bottom;verticalAlign=top;align=center;html=1;" vertex="1" parent="1">
          <mxGeometry x="90" y="410" width="30" height="55" as="geometry" />
        </mxCell>
        <mxCell id="HsOf5Jn7f1l0d6Cwsqnm-28" style="edgeStyle=orthogonalEdgeStyle;rounded=0;orthogonalLoop=1;jettySize=auto;html=1;exitX=0.5;exitY=0.5;exitDx=0;exitDy=0;exitPerimeter=0;entryX=0;entryY=0.5;entryDx=0;entryDy=0;endArrow=none;startFill=0;" edge="1" parent="1" source="HsOf5Jn7f1l0d6Cwsqnm-4" target="HsOf5Jn7f1l0d6Cwsqnm-27">
          <mxGeometry relative="1" as="geometry" />
        </mxCell>
        <mxCell id="HsOf5Jn7f1l0d6Cwsqnm-30" style="edgeStyle=orthogonalEdgeStyle;rounded=0;orthogonalLoop=1;jettySize=auto;html=1;exitX=0.5;exitY=0.5;exitDx=0;exitDy=0;exitPerimeter=0;entryX=0;entryY=0.5;entryDx=0;entryDy=0;endArrow=none;startFill=0;" edge="1" parent="1" source="HsOf5Jn7f1l0d6Cwsqnm-4" target="HsOf5Jn7f1l0d6Cwsqnm-29">
          <mxGeometry relative="1" as="geometry">
            <Array as="points">
              <mxPoint x="170" y="668" />
              <mxPoint x="170" y="730" />
            </Array>
          </mxGeometry>
        </mxCell>
        <mxCell id="HsOf5Jn7f1l0d6Cwsqnm-4" value="&lt;font style=&quot;font-size: 13px;&quot;&gt;Reporting System&lt;/font&gt;" style="shape=umlActor;verticalLabelPosition=bottom;verticalAlign=top;align=center;html=1;" vertex="1" parent="1">
          <mxGeometry x="90" y="640" width="30" height="55" as="geometry" />
        </mxCell>
        <mxCell id="HsOf5Jn7f1l0d6Cwsqnm-38" style="edgeStyle=orthogonalEdgeStyle;rounded=0;orthogonalLoop=1;jettySize=auto;html=1;exitX=0.5;exitY=0.5;exitDx=0;exitDy=0;exitPerimeter=0;entryX=0;entryY=0.5;entryDx=0;entryDy=0;endArrow=none;startFill=0;" edge="1" parent="1" source="HsOf5Jn7f1l0d6Cwsqnm-5" target="HsOf5Jn7f1l0d6Cwsqnm-37">
          <mxGeometry relative="1" as="geometry">
            <Array as="points">
              <mxPoint x="170" y="898" />
              <mxPoint x="170" y="855" />
            </Array>
          </mxGeometry>
        </mxCell>
        <mxCell id="HsOf5Jn7f1l0d6Cwsqnm-40" style="edgeStyle=orthogonalEdgeStyle;rounded=0;orthogonalLoop=1;jettySize=auto;html=1;exitX=0.5;exitY=0.5;exitDx=0;exitDy=0;exitPerimeter=0;entryX=0;entryY=0.5;entryDx=0;entryDy=0;endArrow=none;startFill=0;" edge="1" parent="1" source="HsOf5Jn7f1l0d6Cwsqnm-5" target="HsOf5Jn7f1l0d6Cwsqnm-39">
          <mxGeometry relative="1" as="geometry">
            <Array as="points">
              <mxPoint x="170" y="898" />
              <mxPoint x="170" y="960" />
            </Array>
          </mxGeometry>
        </mxCell>
        <mxCell id="HsOf5Jn7f1l0d6Cwsqnm-5" value="&lt;font style=&quot;font-size: 13px;&quot;&gt;Dashboardsystem&lt;/font&gt;" style="shape=umlActor;verticalLabelPosition=bottom;verticalAlign=top;align=center;html=1;" vertex="1" parent="1">
          <mxGeometry x="90" y="870" width="30" height="55" as="geometry" />
        </mxCell>
        <mxCell id="HsOf5Jn7f1l0d6Cwsqnm-19" value="" style="edgeStyle=orthogonalEdgeStyle;rounded=0;orthogonalLoop=1;jettySize=auto;html=1;dashed=1;" edge="1" parent="1" source="HsOf5Jn7f1l0d6Cwsqnm-7" target="HsOf5Jn7f1l0d6Cwsqnm-18">
          <mxGeometry relative="1" as="geometry" />
        </mxCell>
        <mxCell id="HsOf5Jn7f1l0d6Cwsqnm-21" value="&lt;span style=&quot;background-color: rgb(251, 251, 251);&quot;&gt;&amp;lt;&amp;lt;include&amp;gt;&amp;gt;&lt;/span&gt;" style="edgeLabel;html=1;align=center;verticalAlign=middle;resizable=0;points=[];" vertex="1" connectable="0" parent="HsOf5Jn7f1l0d6Cwsqnm-19">
          <mxGeometry x="0.2737" y="-2" relative="1" as="geometry">
            <mxPoint x="-21" y="-23" as="offset" />
          </mxGeometry>
        </mxCell>
        <mxCell id="HsOf5Jn7f1l0d6Cwsqnm-7" value="Relevante Daten exportieren" style="ellipse;whiteSpace=wrap;html=1;" vertex="1" parent="1">
          <mxGeometry x="220" y="331.5" width="137" height="78.5" as="geometry" />
        </mxCell>
        <mxCell id="HsOf5Jn7f1l0d6Cwsqnm-14" value="Daten in Reporting System importieren" style="ellipse;whiteSpace=wrap;html=1;" vertex="1" parent="1">
          <mxGeometry x="220" y="430" width="137" height="78.5" as="geometry" />
        </mxCell>
        <mxCell id="HsOf5Jn7f1l0d6Cwsqnm-18" value="Benötigte Daten und Datenformat ermitteln" style="ellipse;whiteSpace=wrap;html=1;" vertex="1" parent="1">
          <mxGeometry x="480" y="331.5" width="137" height="78.5" as="geometry" />
        </mxCell>
        <mxCell id="HsOf5Jn7f1l0d6Cwsqnm-22" value="" style="edgeStyle=orthogonalEdgeStyle;rounded=0;orthogonalLoop=1;jettySize=auto;html=1;dashed=1;" edge="1" target="HsOf5Jn7f1l0d6Cwsqnm-24" parent="1">
          <mxGeometry relative="1" as="geometry">
            <mxPoint x="357" y="469.5" as="sourcePoint" />
          </mxGeometry>
        </mxCell>
        <mxCell id="HsOf5Jn7f1l0d6Cwsqnm-23" value="&lt;span style=&quot;background-color: rgb(251, 251, 251);&quot;&gt;&amp;lt;&amp;lt;include&amp;gt;&amp;gt;&lt;/span&gt;" style="edgeLabel;html=1;align=center;verticalAlign=middle;resizable=0;points=[];" vertex="1" connectable="0" parent="HsOf5Jn7f1l0d6Cwsqnm-22">
          <mxGeometry x="0.2737" y="-2" relative="1" as="geometry">
            <mxPoint x="-21" y="-21" as="offset" />
          </mxGeometry>
        </mxCell>
        <mxCell id="HsOf5Jn7f1l0d6Cwsqnm-24" value="Datenformat prüfen und Daten in Datenhaltung speichern" style="ellipse;whiteSpace=wrap;html=1;" vertex="1" parent="1">
          <mxGeometry x="480" y="430" width="190" height="78.5" as="geometry" />
        </mxCell>
        <mxCell id="HsOf5Jn7f1l0d6Cwsqnm-32" value="" style="edgeStyle=orthogonalEdgeStyle;rounded=0;orthogonalLoop=1;jettySize=auto;html=1;dashed=1;" edge="1" parent="1" source="HsOf5Jn7f1l0d6Cwsqnm-27" target="HsOf5Jn7f1l0d6Cwsqnm-31">
          <mxGeometry relative="1" as="geometry" />
        </mxCell>
        <mxCell id="HsOf5Jn7f1l0d6Cwsqnm-33" value="&lt;span style=&quot;background-color: rgb(251, 251, 251);&quot;&gt;&amp;lt;&amp;lt;include&amp;gt;&amp;gt;&lt;/span&gt;" style="edgeLabel;html=1;align=center;verticalAlign=middle;resizable=0;points=[];" vertex="1" connectable="0" parent="HsOf5Jn7f1l0d6Cwsqnm-32">
          <mxGeometry x="0.2367" y="-1" relative="1" as="geometry">
            <mxPoint x="-12" y="-13" as="offset" />
          </mxGeometry>
        </mxCell>
        <mxCell id="HsOf5Jn7f1l0d6Cwsqnm-27" value="Auswertungen nach Art/Dauer/Umfang der Mietverträge erstellen" style="ellipse;whiteSpace=wrap;html=1;" vertex="1" parent="1">
          <mxGeometry x="220" y="584" width="163" height="77" as="geometry" />
        </mxCell>
        <mxCell id="HsOf5Jn7f1l0d6Cwsqnm-35" value="" style="edgeStyle=orthogonalEdgeStyle;rounded=0;orthogonalLoop=1;jettySize=auto;html=1;dashed=1;" edge="1" parent="1" source="HsOf5Jn7f1l0d6Cwsqnm-29" target="HsOf5Jn7f1l0d6Cwsqnm-34">
          <mxGeometry relative="1" as="geometry" />
        </mxCell>
        <mxCell id="HsOf5Jn7f1l0d6Cwsqnm-36" value="&lt;span style=&quot;background-color: rgb(251, 251, 251);&quot;&gt;&amp;lt;&amp;lt;include&amp;gt;&amp;gt;&lt;/span&gt;" style="edgeLabel;html=1;align=center;verticalAlign=middle;resizable=0;points=[];" vertex="1" connectable="0" parent="HsOf5Jn7f1l0d6Cwsqnm-35">
          <mxGeometry x="0.1424" y="1" relative="1" as="geometry">
            <mxPoint x="-7" y="-9" as="offset" />
          </mxGeometry>
        </mxCell>
        <mxCell id="HsOf5Jn7f1l0d6Cwsqnm-29" value="Finanzielle Leistungskennziffern pro Station ermitteln" style="ellipse;whiteSpace=wrap;html=1;" vertex="1" parent="1">
          <mxGeometry x="230" y="695" width="150" height="70" as="geometry" />
        </mxCell>
        <mxCell id="HsOf5Jn7f1l0d6Cwsqnm-31" value="Benötigte Daten abrufen, Berechnungen durchführen" style="ellipse;whiteSpace=wrap;html=1;" vertex="1" parent="1">
          <mxGeometry x="486.5" y="584" width="177" height="77" as="geometry" />
        </mxCell>
        <mxCell id="HsOf5Jn7f1l0d6Cwsqnm-34" value="Benötigte Daten abrufen, Berechnungen durchführen" style="ellipse;whiteSpace=wrap;html=1;" vertex="1" parent="1">
          <mxGeometry x="490" y="695" width="170" height="70" as="geometry" />
        </mxCell>
        <mxCell id="HsOf5Jn7f1l0d6Cwsqnm-42" value="" style="edgeStyle=orthogonalEdgeStyle;rounded=0;orthogonalLoop=1;jettySize=auto;html=1;dashed=1;" edge="1" parent="1" source="HsOf5Jn7f1l0d6Cwsqnm-37" target="HsOf5Jn7f1l0d6Cwsqnm-41">
          <mxGeometry relative="1" as="geometry" />
        </mxCell>
        <mxCell id="HsOf5Jn7f1l0d6Cwsqnm-43" value="&lt;span style=&quot;background-color: rgb(251, 251, 251);&quot;&gt;&amp;lt;&amp;lt;include&amp;gt;&amp;gt;&lt;/span&gt;" style="edgeLabel;html=1;align=center;verticalAlign=middle;resizable=0;points=[];" vertex="1" connectable="0" parent="HsOf5Jn7f1l0d6Cwsqnm-42">
          <mxGeometry x="-0.1079" relative="1" as="geometry">
            <mxPoint x="4" y="-15" as="offset" />
          </mxGeometry>
        </mxCell>
        <mxCell id="HsOf5Jn7f1l0d6Cwsqnm-37" value="Auswertungen visualisieren" style="ellipse;whiteSpace=wrap;html=1;" vertex="1" parent="1">
          <mxGeometry x="230" y="820" width="130" height="70" as="geometry" />
        </mxCell>
        <mxCell id="HsOf5Jn7f1l0d6Cwsqnm-45" value="" style="edgeStyle=orthogonalEdgeStyle;rounded=0;orthogonalLoop=1;jettySize=auto;html=1;dashed=1;" edge="1" parent="1" source="HsOf5Jn7f1l0d6Cwsqnm-39" target="HsOf5Jn7f1l0d6Cwsqnm-44">
          <mxGeometry relative="1" as="geometry" />
        </mxCell>
        <mxCell id="HsOf5Jn7f1l0d6Cwsqnm-46" value="&lt;span style=&quot;background-color: rgb(251, 251, 251);&quot;&gt;&amp;lt;&amp;lt;include&amp;gt;&amp;gt;&lt;/span&gt;" style="edgeLabel;html=1;align=center;verticalAlign=middle;resizable=0;points=[];" vertex="1" connectable="0" parent="HsOf5Jn7f1l0d6Cwsqnm-45">
          <mxGeometry x="-0.2296" relative="1" as="geometry">
            <mxPoint x="6" y="-10" as="offset" />
          </mxGeometry>
        </mxCell>
        <mxCell id="HsOf5Jn7f1l0d6Cwsqnm-39" value="Performance Bericht abrufen" style="ellipse;whiteSpace=wrap;html=1;" vertex="1" parent="1">
          <mxGeometry x="225" y="925" width="140" height="70" as="geometry" />
        </mxCell>
        <mxCell id="HsOf5Jn7f1l0d6Cwsqnm-41" value="Anbindung an Reporting System herstellen, Visualisierungen definieren" style="ellipse;whiteSpace=wrap;html=1;" vertex="1" parent="1">
          <mxGeometry x="463.5" y="810" width="200" height="90" as="geometry" />
        </mxCell>
        <mxCell id="HsOf5Jn7f1l0d6Cwsqnm-44" value="Auf Dashboard zugreifen" style="ellipse;whiteSpace=wrap;html=1;" vertex="1" parent="1">
          <mxGeometry x="493.5" y="925" width="140" height="70" as="geometry" />
        </mxCell>
      </root>
    </mxGraphModel>
  </diagram>
</mxfile>
